<?xml version="1.0" encoding="UTF-8"?>
<svg xmlns="http://www.w3.org/2000/svg" xmlns:xlink="http://www.w3.org/1999/xlink" width="5000" height="5000" viewBox="0 0 5000 5000">
<path fill-rule="nonzero" fill="rgb(0%, 0%, 0%)" fill-opacity="1" d="M 381.003906 1842.128906 C 384.355469 1842.769531 388.503906 1842.671875 393.457031 1841.828125 L 390.507812 1842.390625 C 505.179688 1818.53125 650.703125 1790.171875 827.078125 1757.308594 L 831.109375 1756.671875 C 1067.289062 1725.140625 1288.378906 1689.890625 1494.410156 1650.898438 L 1497.269531 1650.410156 C 1605.488281 1634.019531 1692.761719 1628.109375 1759.078125 1632.671875 L 1757.628906 1632.578125 C 1844.128906 1636.949219 1929.058594 1666.378906 2012.421875 1720.878906 L 2016.089844 1723.429688 C 2102.898438 1787.441406 2183.621094 1866.941406 2258.269531 1961.910156 L 2248.371094 1951.429688 C 2258.050781 1959.960938 2265.988281 1965.519531 2272.210938 1968.101562 L 2277.480469 1970.519531 C 2311.441406 1987.628906 2393.671875 1993.878906 2524.171875 1989.28125 C 2567.921875 1987.738281 2604.648438 2021.960938 2606.191406 2065.710938 C 2607.730469 2109.46875 2573.511719 2146.191406 2529.75 2147.738281 C 2372.171875 2153.289062 2264.300781 2141.421875 2206.140625 2112.121094 L 2211.421875 2114.539062 C 2188.988281 2105.230469 2166.359375 2090.511719 2143.519531 2070.371094 L 2133.609375 2059.890625 C 2067.808594 1976.171875 1997.269531 1906.558594 1921.988281 1851.039062 L 1925.660156 1853.589844 C 1866.238281 1814.738281 1807.558594 1793.859375 1749.640625 1790.929688 L 1748.191406 1790.851562 C 1693.46875 1787.078125 1617.738281 1792.519531 1521.019531 1807.171875 L 1523.890625 1806.691406 C 1315.039062 1846.210938 1091.109375 1881.921875 852.085938 1913.828125 L 856.117188 1913.179688 C 680.828125 1945.839844 536.394531 1973.980469 422.804688 1997.621094 L 419.855469 1998.171875 C 396.246094 2002.160156 373.46875 2002.078125 351.527344 1997.921875 C 308.507812 1989.78125 280.230469 1948.308594 288.371094 1905.289062 C 296.511719 1862.269531 337.984375 1833.988281 381.003906 1842.128906 "/>
<path fill-rule="nonzero" fill="rgb(0%, 0%, 0%)" fill-opacity="1" d="M 4618.160156 1825.148438 C 4614.820312 1825.808594 4610.671875 1825.738281 4605.710938 1824.941406 L 4608.660156 1825.46875 C 4493.800781 1802.539062 4348.058594 1775.339844 4171.421875 1743.898438 L 4167.390625 1743.289062 C 3930.96875 1713.660156 3709.589844 1680.179688 3503.261719 1642.839844 L 3500.390625 1642.378906 C 3392.050781 1626.859375 3304.730469 1621.640625 3238.460938 1626.738281 L 3239.898438 1626.640625 C 3153.441406 1631.699219 3068.75 1661.808594 2985.828125 1716.980469 L 2982.179688 1719.558594 C 2895.890625 1784.269531 2815.800781 1864.398438 2741.921875 1959.96875 L 2751.738281 1949.410156 C 2742.128906 1958.019531 2734.21875 1963.640625 2728.03125 1966.269531 L 2722.78125 1968.730469 C 2688.960938 1986.109375 2606.78125 1993.03125 2476.25 1989.46875 C 2432.480469 1988.28125 2396.039062 2022.789062 2394.839844 2066.558594 C 2393.648438 2110.328125 2428.171875 2146.769531 2471.929688 2147.96875 C 2629.550781 2152.261719 2737.320312 2139.519531 2795.25 2109.761719 L 2789.988281 2112.21875 C 2812.339844 2102.730469 2834.851562 2087.828125 2857.539062 2067.511719 L 2867.359375 2056.949219 C 2932.480469 1972.710938 3002.460938 1902.53125 3077.300781 1846.410156 L 3073.648438 1848.988281 C 3132.761719 1809.671875 3191.261719 1788.308594 3249.160156 1784.921875 L 3250.609375 1784.820312 C 3305.300781 1780.621094 3381.070312 1785.460938 3477.910156 1799.328125 L 3475.03125 1798.859375 C 3684.191406 1836.710938 3908.398438 1870.621094 4147.671875 1900.609375 L 4143.640625 1900 C 4319.179688 1931.25 4463.839844 1958.238281 4577.609375 1980.960938 L 4580.558594 1981.488281 C 4604.210938 1985.289062 4626.980469 1985.019531 4648.890625 1980.691406 C 4691.839844 1972.210938 4719.789062 1930.511719 4711.300781 1887.558594 C 4702.820312 1844.601562 4661.121094 1816.660156 4618.160156 1825.148438 "/>
<path fill-rule="nonzero" fill="rgb(0%, 0%, 0%)" fill-opacity="1" d="M 398.246094 1940.480469 C 453.398438 2676.710938 672.433594 3097.929688 1055.351562 3204.121094 L 1046.480469 3202.199219 C 1284.578125 3239.628906 1531.398438 3203.75 1786.941406 3094.550781 L 1778 3099.058594 C 1823.53125 3072.371094 1862.199219 3033.578125 1894.019531 2982.679688 L 1886.710938 2997.699219 C 1984.980469 2726.449219 2055.371094 2567.410156 2097.878906 2520.578125 C 2117.800781 2498.640625 2140.289062 2486.640625 2165.328125 2484.570312 L 2116.128906 2507.179688 C 2257.941406 2367.101562 2403.359375 2306.140625 2552.390625 2324.28125 C 2595.851562 2329.578125 2626.789062 2369.101562 2621.5 2412.558594 C 2616.210938 2456.019531 2576.679688 2486.96875 2533.21875 2481.671875 C 2434.910156 2469.699219 2333.019531 2515.808594 2227.558594 2619.980469 L 2178.359375 2642.589844 C 2194.871094 2641.230469 2207.171875 2636.078125 2215.28125 2627.160156 C 2186.78125 2658.550781 2126.941406 2800.058594 2035.78125 3051.710938 L 2028.460938 3066.71875 C 1982.878906 3139.648438 1926.121094 3196.019531 1858.191406 3235.839844 L 1849.25 3240.351562 C 1565.761719 3361.488281 1289.960938 3400.980469 1021.859375 3358.828125 L 1012.980469 3356.910156 C 558.449219 3230.859375 300.835938 2762.660156 240.136719 1952.328125 C 236.867188 1908.660156 269.609375 1870.621094 313.269531 1867.351562 C 356.933594 1864.078125 394.976562 1896.820312 398.246094 1940.480469 "/>
<path fill-rule="nonzero" fill="rgb(0%, 0%, 0%)" fill-opacity="1" d="M 4601.710938 1923.628906 C 4552.460938 2660.28125 4336.808594 3083.238281 3954.761719 3192.5 L 3963.609375 3190.511719 C 3725.828125 3229.839844 3478.730469 3195.941406 3222.308594 3088.800781 L 3231.289062 3093.238281 C 3185.550781 3066.910156 3146.570312 3028.429688 3114.339844 2977.78125 L 3121.78125 2992.738281 C 3021.328125 2722.300781 2949.671875 2563.828125 2906.78125 2517.339844 C 2886.679688 2495.558594 2864.109375 2483.730469 2839.039062 2481.871094 L 2888.421875 2504.078125 C 2745.488281 2365.148438 2599.589844 2305.351562 2450.71875 2324.691406 C 2407.300781 2330.328125 2376.671875 2370.101562 2382.308594 2413.519531 C 2387.949219 2456.941406 2427.71875 2487.558594 2471.140625 2481.921875 C 2569.359375 2469.160156 2671.609375 2514.449219 2777.910156 2617.769531 L 2827.28125 2639.988281 C 2810.769531 2638.761719 2798.421875 2633.710938 2790.238281 2624.851562 C 2818.988281 2656.011719 2879.960938 2797.039062 2973.140625 3047.949219 L 2980.578125 3062.910156 C 3026.738281 3135.460938 3083.949219 3191.378906 3152.199219 3230.660156 L 3161.179688 3235.089844 C 3445.628906 3353.949219 3721.730469 3391.230469 3989.488281 3346.929688 L 3998.351562 3344.941406 C 4451.859375 3215.238281 4705.710938 2745 4759.910156 1934.199219 C 4762.828125 1890.519531 4729.78125 1852.738281 4686.101562 1849.820312 C 4642.410156 1846.890625 4604.628906 1879.941406 4601.710938 1923.628906 "/>
</svg>
