<?xml version="1.0" encoding="UTF-8"?>
<svg xmlns="http://www.w3.org/2000/svg" xmlns:xlink="http://www.w3.org/1999/xlink" width="3146.86" height="3304.95" viewBox="0 0 3146.86 3304.95">
<defs>
<clipPath id="clip-0">

</clipPath>
<clipPath id="clip-1">
<path clip-rule="nonzero" d="M 651 0 L 3146.859375 0 L 3146.859375 2787 L 651 2787 Z M 651 0 "/>
</clipPath>
<clipPath id="clip-2">
<path clip-rule="evenodd" d="M 2503.328125 2786.261719 C 2502.96875 2786.261719 2502.679688 2786.261719 2502.320312 2786.261719 C 2482.460938 2785.980469 2463.53125 2777.671875 2449.890625 2763.269531 C 2419.199219 2730.820312 2380.910156 2686.960938 2336.558594 2636.121094 C 2212.980469 2494.460938 2006.109375 2257.410156 1898.550781 2216.890625 C 1880.839844 2209.730469 1500.859375 2055.121094 1235.691406 1880.25 C 1192.988281 1852.078125 1148.261719 1823.171875 1102.570312 1793.539062 C 974.558594 1710.640625 842.191406 1624.898438 722.59375 1536.839844 C 660.847656 1491.359375 637.265625 1418.210938 661 1345.929688 C 685.351562 1271.871094 752.105469 1220.160156 823.421875 1220.160156 C 853.640625 1220.160156 898.382812 1229.359375 939.894531 1273.148438 C 984.882812 1320.609375 1090.730469 1375.03125 1183.21875 1412.179688 C 1078.949219 1335.960938 857.414062 1166.75 731.292969 1017.628906 C 661.847656 935.539062 639.980469 832.910156 675.5625 756.160156 C 699.339844 704.898438 745.871094 674.28125 800.039062 674.28125 C 838.898438 674.28125 899.121094 690.628906 965.492188 768.589844 C 1064.589844 885.011719 1236.988281 1030.511719 1349.570312 1105.710938 C 1289.070312 1026.351562 1164.46875 887.421875 907.902344 652.230469 C 816.199219 568.179688 781.183594 467.421875 814.144531 382.621094 C 840.964844 313.640625 909.207031 269.058594 987.925781 269.058594 C 1072.128906 269.058594 1154.949219 318.570312 1215.171875 404.929688 C 1318.140625 552.570312 1555.539062 835.070312 1667.109375 919.019531 C 1656.710938 894.371094 1634.738281 856.371094 1588.78125 801.800781 L 1318.058594 478.558594 C 1316.910156 477.179688 1315.808594 475.789062 1314.761719 474.328125 C 1226.011719 351.21875 1203.121094 204.378906 1256.410156 100.25 C 1289.039062 36.53125 1345.980469 0 1412.710938 0 C 1479.78125 0 1583.398438 37.828125 1696.28125 218.210938 L 2009.378906 718.421875 C 2005.839844 548.5 2023.871094 364.488281 2106.898438 288.421875 C 2139.539062 250.988281 2183.53125 230.460938 2231.429688 230.460938 C 2320.210938 230.460938 2409.371094 301.789062 2430.179688 389.5 L 2745.011719 1710.449219 L 3125.300781 2090.730469 C 3139.109375 2104.519531 3146.859375 2123.230469 3146.859375 2142.738281 C 3146.859375 2162.261719 3139.109375 2180.96875 3125.300781 2194.761719 L 2555.328125 2764.761719 C 2541.558594 2778.550781 2522.859375 2786.261719 2503.328125 2786.261719 "/>
</clipPath>
<linearGradient id="linear-pattern-0" gradientUnits="userSpaceOnUse" x1="0.195312" y1="0" x2="0.799432" y2="0" gradientTransform="matrix(0, 4612.1, -4612.1, 0, 1899.39, -900.8)">
<stop offset="0" stop-color="rgb(3.982544%, 67.729187%, 58.460999%)" stop-opacity="1"/>
<stop offset="0.03125" stop-color="rgb(4.174805%, 67.799377%, 58.557129%)" stop-opacity="1"/>
<stop offset="0.0625" stop-color="rgb(4.559326%, 67.939758%, 58.74939%)" stop-opacity="1"/>
<stop offset="0.09375" stop-color="rgb(4.943848%, 68.080139%, 58.94165%)" stop-opacity="1"/>
<stop offset="0.125" stop-color="rgb(5.329895%, 68.22052%, 59.135437%)" stop-opacity="1"/>
<stop offset="0.15625" stop-color="rgb(5.714417%, 68.362427%, 59.327698%)" stop-opacity="1"/>
<stop offset="0.1875" stop-color="rgb(6.098938%, 68.502808%, 59.519958%)" stop-opacity="1"/>
<stop offset="0.21875" stop-color="rgb(6.483459%, 68.643188%, 59.712219%)" stop-opacity="1"/>
<stop offset="0.25" stop-color="rgb(6.869507%, 68.783569%, 59.90448%)" stop-opacity="1"/>
<stop offset="0.28125" stop-color="rgb(7.254028%, 68.92395%, 60.096741%)" stop-opacity="1"/>
<stop offset="0.3125" stop-color="rgb(7.63855%, 69.065857%, 60.290527%)" stop-opacity="1"/>
<stop offset="0.34375" stop-color="rgb(8.024597%, 69.206238%, 60.482788%)" stop-opacity="1"/>
<stop offset="0.375" stop-color="rgb(8.409119%, 69.346619%, 60.675049%)" stop-opacity="1"/>
<stop offset="0.40625" stop-color="rgb(8.79364%, 69.487%, 60.86731%)" stop-opacity="1"/>
<stop offset="0.4375" stop-color="rgb(9.179688%, 69.62738%, 61.05957%)" stop-opacity="1"/>
<stop offset="0.46875" stop-color="rgb(9.564209%, 69.767761%, 61.251831%)" stop-opacity="1"/>
<stop offset="0.5" stop-color="rgb(9.94873%, 69.909668%, 61.444092%)" stop-opacity="1"/>
<stop offset="0.53125" stop-color="rgb(10.333252%, 70.050049%, 61.637878%)" stop-opacity="1"/>
<stop offset="0.5625" stop-color="rgb(10.719299%, 70.19043%, 61.830139%)" stop-opacity="1"/>
<stop offset="0.59375" stop-color="rgb(11.103821%, 70.330811%, 62.0224%)" stop-opacity="1"/>
<stop offset="0.625" stop-color="rgb(11.488342%, 70.471191%, 62.214661%)" stop-opacity="1"/>
<stop offset="0.65625" stop-color="rgb(11.87439%, 70.613098%, 62.406921%)" stop-opacity="1"/>
<stop offset="0.6875" stop-color="rgb(12.258911%, 70.753479%, 62.599182%)" stop-opacity="1"/>
<stop offset="0.71875" stop-color="rgb(12.643433%, 70.89386%, 62.791443%)" stop-opacity="1"/>
<stop offset="0.75" stop-color="rgb(13.02948%, 71.034241%, 62.985229%)" stop-opacity="1"/>
<stop offset="0.78125" stop-color="rgb(13.414001%, 71.174622%, 63.17749%)" stop-opacity="1"/>
<stop offset="0.8125" stop-color="rgb(13.798523%, 71.316528%, 63.369751%)" stop-opacity="1"/>
<stop offset="0.84375" stop-color="rgb(14.183044%, 71.456909%, 63.562012%)" stop-opacity="1"/>
<stop offset="0.875" stop-color="rgb(14.569092%, 71.59729%, 63.754272%)" stop-opacity="1"/>
<stop offset="0.90625" stop-color="rgb(14.953613%, 71.737671%, 63.946533%)" stop-opacity="1"/>
<stop offset="0.9375" stop-color="rgb(15.338135%, 71.878052%, 64.14032%)" stop-opacity="1"/>
<stop offset="0.96875" stop-color="rgb(15.724182%, 72.018433%, 64.332581%)" stop-opacity="1"/>
<stop offset="1" stop-color="rgb(16.108704%, 72.160339%, 64.524841%)" stop-opacity="1"/>
</linearGradient>
<clipPath id="clip-3">
<path clip-rule="nonzero" d="M 2407 1841 L 2980 1841 L 2980 2414 L 2407 2414 Z M 2407 1841 "/>
</clipPath>
<clipPath id="clip-4">
<path clip-rule="evenodd" d="M 2875.78125 1841.210938 L 2979.808594 1945.25 L 2533.191406 2391.871094 C 2518.820312 2406.21875 2500.019531 2413.421875 2481.171875 2413.421875 C 2462.339844 2413.421875 2443.511719 2406.25 2429.148438 2391.871094 C 2400.410156 2363.148438 2400.410156 2316.539062 2429.148438 2287.828125 L 2875.78125 1841.210938 "/>
</clipPath>
<linearGradient id="linear-pattern-1" gradientUnits="userSpaceOnUse" x1="0.31192" y1="0" x2="0.675542" y2="0" gradientTransform="matrix(0, -1573.64, 1573.64, 0, 2693.7, 2904.27)">
<stop offset="0" stop-color="rgb(86.62262%, 86.77063%, 86.500549%)" stop-opacity="1"/>
<stop offset="0.0625" stop-color="rgb(86.506653%, 86.645508%, 86.380005%)" stop-opacity="1"/>
<stop offset="0.125" stop-color="rgb(86.274719%, 86.395264%, 86.138916%)" stop-opacity="1"/>
<stop offset="0.1875" stop-color="rgb(86.042786%, 86.146545%, 85.899353%)" stop-opacity="1"/>
<stop offset="0.25" stop-color="rgb(85.812378%, 85.896301%, 85.658264%)" stop-opacity="1"/>
<stop offset="0.3125" stop-color="rgb(85.580444%, 85.647583%, 85.417175%)" stop-opacity="1"/>
<stop offset="0.375" stop-color="rgb(85.348511%, 85.397339%, 85.176086%)" stop-opacity="1"/>
<stop offset="0.4375" stop-color="rgb(85.116577%, 85.148621%, 84.936523%)" stop-opacity="1"/>
<stop offset="0.5" stop-color="rgb(84.884644%, 84.898376%, 84.695435%)" stop-opacity="1"/>
<stop offset="0.5625" stop-color="rgb(84.65271%, 84.648132%, 84.454346%)" stop-opacity="1"/>
<stop offset="0.625" stop-color="rgb(84.420776%, 84.399414%, 84.214783%)" stop-opacity="1"/>
<stop offset="0.6875" stop-color="rgb(84.188843%, 84.14917%, 83.973694%)" stop-opacity="1"/>
<stop offset="0.75" stop-color="rgb(83.958435%, 83.900452%, 83.732605%)" stop-opacity="1"/>
<stop offset="0.8125" stop-color="rgb(83.726501%, 83.650208%, 83.493042%)" stop-opacity="1"/>
<stop offset="0.875" stop-color="rgb(83.494568%, 83.401489%, 83.251953%)" stop-opacity="1"/>
<stop offset="0.9375" stop-color="rgb(83.262634%, 83.151245%, 83.010864%)" stop-opacity="1"/>
<stop offset="1" stop-color="rgb(83.030701%, 82.902527%, 82.769775%)" stop-opacity="1"/>
</linearGradient>
<clipPath id="clip-5">
<path clip-rule="nonzero" d="M 1622 1141 L 2364 1141 L 2364 1883 L 1622 1883 Z M 1622 1141 "/>
</clipPath>
<clipPath id="clip-6">
<path clip-rule="evenodd" d="M 1894.46875 1882.730469 C 1875.628906 1882.730469 1856.808594 1875.558594 1842.449219 1861.160156 L 1644.539062 1663.269531 C 1615.789062 1634.519531 1615.789062 1587.941406 1644.539062 1559.210938 L 2040.320312 1163.429688 C 2069.070312 1134.710938 2115.609375 1134.710938 2144.351562 1163.429688 L 2342.269531 1361.328125 C 2371 1390.078125 2371 1436.648438 2342.269531 1465.390625 L 1946.488281 1861.160156 C 1932.121094 1875.550781 1913.320312 1882.730469 1894.46875 1882.730469 "/>
</clipPath>
<linearGradient id="linear-pattern-2" gradientUnits="userSpaceOnUse" x1="0.0924343" y1="0" x2="0.915464" y2="0" gradientTransform="matrix(0, -908.862, 908.862, 0, 1993.4, 1966.74)">
<stop offset="0" stop-color="rgb(88.861084%, 89.179993%, 88.824463%)" stop-opacity="1"/>
<stop offset="0.03125" stop-color="rgb(88.729858%, 89.038086%, 88.68866%)" stop-opacity="1"/>
<stop offset="0.0625" stop-color="rgb(88.467407%, 88.755798%, 88.415527%)" stop-opacity="1"/>
<stop offset="0.09375" stop-color="rgb(88.204956%, 88.473511%, 88.143921%)" stop-opacity="1"/>
<stop offset="0.125" stop-color="rgb(87.942505%, 88.191223%, 87.870789%)" stop-opacity="1"/>
<stop offset="0.15625" stop-color="rgb(87.680054%, 87.908936%, 87.599182%)" stop-opacity="1"/>
<stop offset="0.1875" stop-color="rgb(87.417603%, 87.626648%, 87.32605%)" stop-opacity="1"/>
<stop offset="0.21875" stop-color="rgb(87.156677%, 87.34436%, 87.054443%)" stop-opacity="1"/>
<stop offset="0.25" stop-color="rgb(86.894226%, 87.062073%, 86.781311%)" stop-opacity="1"/>
<stop offset="0.28125" stop-color="rgb(86.631775%, 86.779785%, 86.509705%)" stop-opacity="1"/>
<stop offset="0.3125" stop-color="rgb(86.369324%, 86.497498%, 86.236572%)" stop-opacity="1"/>
<stop offset="0.34375" stop-color="rgb(86.106873%, 86.213684%, 85.964966%)" stop-opacity="1"/>
<stop offset="0.375" stop-color="rgb(85.844421%, 85.931396%, 85.691833%)" stop-opacity="1"/>
<stop offset="0.40625" stop-color="rgb(85.58197%, 85.649109%, 85.420227%)" stop-opacity="1"/>
<stop offset="0.4375" stop-color="rgb(85.321045%, 85.366821%, 85.147095%)" stop-opacity="1"/>
<stop offset="0.46875" stop-color="rgb(85.058594%, 85.084534%, 84.875488%)" stop-opacity="1"/>
<stop offset="0.5" stop-color="rgb(84.796143%, 84.802246%, 84.602356%)" stop-opacity="1"/>
<stop offset="0.53125" stop-color="rgb(84.533691%, 84.519958%, 84.33075%)" stop-opacity="1"/>
<stop offset="0.5625" stop-color="rgb(84.27124%, 84.237671%, 84.057617%)" stop-opacity="1"/>
<stop offset="0.59375" stop-color="rgb(84.008789%, 83.955383%, 83.786011%)" stop-opacity="1"/>
<stop offset="0.625" stop-color="rgb(83.746338%, 83.673096%, 83.514404%)" stop-opacity="1"/>
<stop offset="0.65625" stop-color="rgb(83.483887%, 83.390808%, 83.241272%)" stop-opacity="1"/>
<stop offset="0.6875" stop-color="rgb(83.222961%, 83.108521%, 82.969666%)" stop-opacity="1"/>
<stop offset="0.71875" stop-color="rgb(82.96051%, 82.824707%, 82.696533%)" stop-opacity="1"/>
<stop offset="0.75" stop-color="rgb(82.698059%, 82.542419%, 82.424927%)" stop-opacity="1"/>
<stop offset="0.78125" stop-color="rgb(82.435608%, 82.260132%, 82.151794%)" stop-opacity="1"/>
<stop offset="0.8125" stop-color="rgb(82.173157%, 81.977844%, 81.880188%)" stop-opacity="1"/>
<stop offset="0.84375" stop-color="rgb(81.910706%, 81.695557%, 81.607056%)" stop-opacity="1"/>
<stop offset="0.875" stop-color="rgb(81.648254%, 81.413269%, 81.335449%)" stop-opacity="1"/>
<stop offset="0.90625" stop-color="rgb(81.387329%, 81.130981%, 81.062317%)" stop-opacity="1"/>
<stop offset="0.9375" stop-color="rgb(81.124878%, 80.848694%, 80.79071%)" stop-opacity="1"/>
<stop offset="0.96875" stop-color="rgb(80.862427%, 80.566406%, 80.517578%)" stop-opacity="1"/>
<stop offset="1" stop-color="rgb(80.599976%, 80.284119%, 80.245972%)" stop-opacity="1"/>
</linearGradient>
</defs>
<path fill-rule="evenodd" fill="rgb(100%, 100%, 100%)" fill-opacity="1" d="M 604.519531 2847.519531 L 481.730469 3050.839844 L 587.144531 3225.359375 C 631.839844 3234.941406 678.183594 3239.980469 725.683594 3239.980469 C 775.253906 3239.980469 823.574219 3234.488281 870.058594 3224.089844 L 970.085938 3050.839844 L 852.71875 2847.550781 L 604.519531 2847.519531 "/>
<path fill-rule="evenodd" fill="rgb(100%, 100%, 100%)" fill-opacity="1" d="M 909.003906 2815.039062 L 1026.398438 3018.390625 L 1218.949219 3018.390625 C 1285.578125 2943.628906 1335.511719 2853.679688 1362.820312 2754.46875 L 1280.441406 2611.78125 L 1026.359375 2611.78125 L 909.003906 2815.039062 "/>
<path fill-rule="evenodd" fill="rgb(100%, 100%, 100%)" fill-opacity="1" d="M 88.550781 2754.46875 C 115.871094 2853.671875 165.78125 2943.609375 232.402344 3018.359375 L 425.410156 3018.359375 L 449.78125 2978.019531 L 548.414062 2814.691406 L 431.273438 2611.769531 L 170.914062 2611.769531 L 88.550781 2754.46875 "/>
<path fill-rule="evenodd" fill="rgb(100%, 100%, 100%)" fill-opacity="1" d="M 177.179688 2546.78125 L 431.257812 2546.78125 L 548.414062 2343.859375 L 442.570312 2168.578125 L 425.417969 2140.179688 L 232.394531 2140.179688 C 167.414062 2213.101562 118.320312 2300.480469 90.601562 2396.808594 L 177.179688 2546.78125 "/>
<path fill-rule="evenodd" fill="rgb(100%, 100%, 100%)" fill-opacity="1" d="M 481.707031 2107.671875 L 604.488281 2310.960938 L 852.71875 2310.960938 L 970.097656 2107.671875 L 870.101562 1934.460938 C 823.605469 1924.050781 775.277344 1918.558594 725.683594 1918.558594 C 678.160156 1918.558594 631.800781 1923.601562 587.101562 1933.179688 L 481.707031 2107.671875 "/>
<path fill-rule="evenodd" fill="rgb(100%, 100%, 100%)" fill-opacity="1" d="M 909.003906 2343.5 L 1026.371094 2546.789062 L 1280.449219 2546.789062 L 1362.839844 2404.109375 C 1335.53125 2304.890625 1285.601562 2214.941406 1218.980469 2140.179688 L 1026.371094 2140.179688 L 995.175781 2194.21875 L 909.003906 2343.5 "/>
<g clip-path="url(#clip-0)">
<path fill-rule="evenodd" fill="rgb(19.993591%, 19.993591%, 19.993591%)" fill-opacity="1" d="M 725.683594 1918.558594 C 361.378906 1918.558594 64.984375 2214.949219 64.984375 2579.269531 C 64.984375 2943.589844 361.378906 3239.980469 725.683594 3239.980469 C 1089.988281 3239.980469 1386.398438 2943.589844 1386.398438 2579.269531 C 1386.398438 2214.949219 1089.988281 1918.558594 725.683594 1918.558594 Z M 725.683594 3304.949219 C 325.542969 3304.949219 0 2979.410156 0 2579.269531 C 0 2179.128906 325.542969 1853.578125 725.683594 1853.578125 C 1125.839844 1853.578125 1451.371094 2179.128906 1451.371094 2579.269531 C 1451.371094 2979.421875 1125.839844 3304.949219 725.683594 3304.949219 "/>
</g>
<path fill-rule="evenodd" fill="rgb(0%, 0%, 0.784302%)" fill-opacity="1" d="M 604.917969 2782.578125 L 852.726562 2782.578125 L 970.097656 2579.269531 L 852.726562 2375.960938 L 604.917969 2375.960938 L 487.546875 2579.269531 Z M 871.488281 2847.550781 L 586.167969 2847.550781 C 574.558594 2847.550781 563.839844 2841.359375 558.03125 2831.308594 L 421.882812 2595.519531 C 416.070312 2585.460938 416.070312 2573.078125 421.882812 2563.03125 L 558.03125 2327.238281 C 563.839844 2317.179688 574.558594 2311 586.167969 2311 L 871.488281 2311 C 883.101562 2311 893.8125 2317.179688 899.632812 2327.238281 L 1035.75 2563.03125 C 1041.558594 2573.078125 1041.558594 2585.46875 1035.75 2595.519531 L 899.632812 2831.300781 C 893.8125 2841.359375 883.101562 2847.550781 871.488281 2847.550781 "/>
<path fill-rule="evenodd" fill="rgb(19.993591%, 19.993591%, 19.993591%)" fill-opacity="1" d="M 852.734375 2782.550781 L 953.324219 2608.308594 L 852.742188 2782.550781 Z M 25.515625 2733.660156 C 16.542969 2749.210938 21.871094 2769.089844 37.410156 2778.058594 C 52.964844 2787.019531 72.839844 2781.691406 81.796875 2766.160156 L 170.914062 2611.769531 L 431.265625 2611.769531 L 548.414062 2814.691406 L 449.78125 2978.019531 L 425.410156 3018.371094 L 217.617188 3018.371094 C 199.664062 3018.371094 185.117188 3032.910156 185.117188 3050.859375 C 185.117188 3068.808594 199.664062 3083.359375 217.617188 3083.359375 L 299.011719 3083.359375 C 356.6875 3132.25 422.84375 3171.449219 494.921875 3198.398438 L 538.703125 3270.890625 C 544.804688 3281 555.535156 3286.601562 566.546875 3286.601562 C 572.265625 3286.601562 578.066406 3285.082031 583.308594 3281.878906 C 598.679688 3272.609375 603.605469 3252.628906 594.335938 3237.269531 L 481.730469 3050.839844 L 604.519531 2847.519531 L 852.707031 2847.519531 L 970.085938 3050.839844 L 862.996094 3236.320312 C 854.023438 3251.871094 859.351562 3271.75 874.882812 3280.710938 C 890.445312 3289.679688 910.3125 3284.351562 919.277344 3268.832031 L 960.914062 3196.71875 C 1031.261719 3169.828125 1095.871094 3131.238281 1152.359375 3083.359375 L 1233.761719 3083.359375 C 1251.710938 3083.359375 1266.238281 3068.828125 1266.238281 3050.890625 C 1266.238281 3032.929688 1251.699219 3018.390625 1233.738281 3018.390625 L 1026.398438 3018.390625 L 909.007812 2815.039062 L 1026.359375 2611.78125 L 1280.441406 2611.78125 L 1369.570312 2766.171875 C 1378.539062 2781.710938 1398.398438 2787.039062 1413.96875 2778.058594 C 1429.511719 2769.101562 1434.839844 2749.210938 1425.859375 2733.671875 L 1381.808594 2657.359375 C 1384.839844 2631.738281 1386.398438 2605.691406 1386.398438 2579.269531 C 1386.398438 2552.871094 1384.839844 2526.828125 1381.820312 2501.21875 L 1336.738281 2579.300781 L 1355.671875 2612.078125 L 1336.738281 2579.300781 L 1425.871094 2424.910156 C 1434.839844 2409.371094 1429.511719 2389.488281 1413.980469 2380.519531 C 1398.410156 2371.539062 1378.539062 2376.878906 1369.589844 2392.421875 L 1280.460938 2546.800781 L 1026.371094 2546.789062 L 909.003906 2343.488281 L 995.175781 2194.21875 L 1026.371094 2140.179688 L 1233.761719 2140.179688 C 1251.710938 2140.179688 1266.238281 2125.621094 1266.238281 2107.679688 C 1266.238281 2089.738281 1251.710938 2075.199219 1233.761719 2075.199219 L 1152.371094 2075.199219 C 1095.898438 2027.308594 1031.289062 1988.730469 960.949219 1961.839844 L 919.292969 1889.679688 C 910.328125 1874.148438 890.46875 1868.820312 874.898438 1877.78125 C 859.359375 1886.761719 854.039062 1906.640625 863.003906 1922.171875 L 970.097656 2107.671875 L 852.726562 2310.960938 L 604.488281 2310.960938 L 481.714844 2107.671875 L 594.320312 1921.21875 C 603.597656 1905.871094 598.671875 1885.890625 583.304688 1876.609375 C 567.949219 1867.339844 547.964844 1872.28125 538.6875 1887.628906 L 494.894531 1960.140625 C 422.816406 1987.101562 356.679688 2026.300781 298.996094 2075.199219 L 217.617188 2075.199219 C 199.664062 2075.199219 185.117188 2089.738281 185.117188 2107.679688 C 185.117188 2125.621094 199.664062 2140.179688 217.617188 2140.179688 L 425.417969 2140.179688 L 442.566406 2168.570312 L 548.40625 2343.851562 L 431.257812 2546.78125 L 177.171875 2546.78125 L 83.726562 2384.898438 C 74.75 2369.359375 54.898438 2364.039062 39.335938 2373.011719 C 23.800781 2381.980469 18.480469 2401.859375 27.445312 2417.390625 L 70.6875 2492.289062 C 66.921875 2520.761719 64.984375 2549.789062 64.984375 2579.269531 C 64.984375 2605.679688 66.539062 2631.738281 69.570312 2657.359375 L 25.515625 2733.660156 "/>
<g clip-path="url(#clip-1)">
<g clip-path="url(#clip-2)">
<path fill-rule="nonzero" fill="url(#linear-pattern-0)" d="M 3146.859375 0 L 637.265625 0 L 637.265625 2786.261719 L 3146.859375 2786.261719 Z M 3146.859375 0 "/>
</g>
</g>
<path fill-rule="evenodd" fill="rgb(19.993591%, 19.993591%, 19.993591%)" fill-opacity="1" d="M 2126.328125 2403.738281 C 2090.261719 2366.480469 2054.320312 2331.320312 2020.53125 2301.460938 L 2719.328125 1602.671875 L 2745.011719 1710.449219 L 2782.320312 1747.75 L 2126.328125 2403.738281 "/>
<g clip-path="url(#clip-3)">
<g clip-path="url(#clip-4)">
<path fill-rule="nonzero" fill="url(#linear-pattern-1)" d="M 2400.410156 2413.421875 L 2979.808594 2413.421875 L 2979.808594 1841.210938 L 2400.410156 1841.210938 Z M 2400.410156 2413.421875 "/>
</g>
</g>
<g clip-path="url(#clip-5)">
<g clip-path="url(#clip-6)">
<path fill-rule="nonzero" fill="url(#linear-pattern-2)" d="M 1615.789062 1882.730469 L 2371 1882.730469 L 2371 1134.710938 L 1615.789062 1134.710938 Z M 1615.789062 1882.730469 "/>
</g>
</g>
<path fill-rule="evenodd" fill="rgb(84.764099%, 84.764099%, 84.764099%)" fill-opacity="1" d="M 548.40625 2343.851562 L 442.566406 2168.570312 L 425.417969 2140.179688 L 232.402344 2140.179688 C 167.421875 2213.101562 118.320312 2300.46875 90.601562 2396.808594 L 177.171875 2546.78125 L 431.257812 2546.78125 L 548.40625 2343.851562 "/>
<path fill-rule="evenodd" fill="rgb(84.764099%, 84.764099%, 84.764099%)" fill-opacity="1" d="M 970.097656 2107.671875 L 870.101562 1934.460938 C 823.605469 1924.050781 775.277344 1918.558594 725.683594 1918.558594 C 678.160156 1918.558594 631.800781 1923.601562 587.101562 1933.179688 L 481.714844 2107.671875 L 604.488281 2310.960938 L 852.726562 2310.960938 L 970.097656 2107.671875 "/>
<path fill-rule="evenodd" fill="rgb(84.764099%, 84.764099%, 84.764099%)" fill-opacity="1" d="M 1362.839844 2404.109375 C 1335.53125 2304.890625 1285.601562 2214.941406 1218.980469 2140.179688 L 1026.371094 2140.179688 L 995.175781 2194.21875 L 909.003906 2343.488281 L 1026.371094 2546.789062 L 1280.460938 2546.800781 L 1362.839844 2404.109375 "/>
<path fill-rule="evenodd" fill="rgb(84.764099%, 84.764099%, 84.764099%)" fill-opacity="1" d="M 1362.820312 2754.46875 L 1280.441406 2611.78125 L 1026.359375 2611.78125 L 909.007812 2815.039062 L 1026.398438 3018.390625 L 1218.949219 3018.390625 C 1285.578125 2943.628906 1335.511719 2853.691406 1362.820312 2754.46875 "/>
<path fill-rule="evenodd" fill="rgb(84.764099%, 84.764099%, 84.764099%)" fill-opacity="1" d="M 970.085938 3050.839844 L 852.71875 2847.550781 L 604.519531 2847.519531 L 481.730469 3050.839844 L 587.144531 3225.371094 C 631.828125 3234.941406 678.175781 3239.980469 725.683594 3239.980469 C 775.253906 3239.980469 823.574219 3234.488281 870.058594 3224.089844 L 970.085938 3050.839844 "/>
<path fill-rule="evenodd" fill="rgb(84.764099%, 84.764099%, 84.764099%)" fill-opacity="1" d="M 449.78125 2978.019531 L 548.414062 2814.691406 L 431.265625 2611.769531 L 170.914062 2611.769531 L 88.558594 2754.449219 C 115.871094 2853.660156 165.78125 2943.609375 232.402344 3018.359375 L 425.410156 3018.371094 L 449.78125 2978.019531 "/>
</svg>
