<?xml version="1.0" encoding="utf-8"?>
<svg viewBox="517.4000244140625 150.10000610351562 143 196.800048828125" width="143" height="196.800048828125" xmlns="http://www.w3.org/2000/svg"><g transform="matrix(0.9999999999999999, 0, 0, 0.9999999999999999, -5.684341886080802e-14, -1.4210854715202004e-14)"><g transform="matrix(0.9999999999999999, 0, 0, 0.9999999999999999, -5.684341886080802e-14, -1.4210854715202004e-14)">
	<g>
		<path class="st0" d="M654.1,345.4H523.9c-1.3,0-2.7-0.6-3.6-1.5c-0.9-1-1.4-2.3-1.3-3.7l5.8-101c0.1-1.3,0.6-2.4,1.6-3.3&#10;&#9;&#9;&#9;c1.9-1.8,18.5-18.9,5.3-63.7c-0.7-2.3,0.4-4.7,2.5-5.8l26.4-13.6c0.7-0.4,1.5-0.5,2.2-0.5c1.2,0,2.4,0.5,3.3,1.3l23.7,21.9&#10;&#9;&#9;&#9;l23.5-22.5c0.9-0.9,2.1-1.4,3.4-1.4c0.9,0,1.7,0.2,2.5,0.7l17,10.1c1.6,0.9,2.5,2.6,2.4,4.5c-0.2,5.1-1.9,50,15.6,68.2&#10;&#9;&#9;&#9;c0.9,0.9,1.4,2.1,1.4,3.4c0,39,2.8,91.6,3.3,101.7c0.1,1.3-0.4,2.7-1.3,3.6C656.8,344.8,655.5,345.4,654.1,345.4z M526.2,338.3&#10;&#9;&#9;&#9;h125.6c-0.7-14.1-3.1-62.2-3.2-98.9c-17.8-19.3-17.5-60.4-17.1-71.5l-14.5-8.6l-23.8,22.7c-0.9,0.9-2.1,1.4-3.4,1.4h0&#10;&#9;&#9;&#9;c-1.2,0-2.4-0.5-3.3-1.3l-24.1-22.3l-23.5,12c12.5,44.3-2.5,63.8-7.2,68.5L526.2,338.3z" style="fill: rgb(204, 204, 204);"/>
		<path d="M654.1,346.9H523.9c-1.8,0-3.5-0.7-4.7-2c-1.2-1.3-1.8-3-1.7-4.8l5.8-101c0.1-1.7,0.8-3.2,2-4.3&#10;&#9;&#9;&#9;c1.9-1.7,17.8-18.2,4.9-62.2c-0.9-3,0.5-6.1,3.2-7.5l26.4-13.6c0.9-0.5,1.9-0.7,2.9-0.7c1.6,0,3.2,0.6,4.4,1.7l22.6,20.9&#10;&#9;&#9;&#9;l22.5-21.5c1.2-1.1,2.8-1.8,4.4-1.8c1.1,0,2.3,0.3,3.3,0.9l17,10.1c2.1,1.2,3.3,3.5,3.1,5.8c-0.2,5-1.9,49.4,15.2,67.1&#10;&#9;&#9;&#9;c1.2,1.2,1.8,2.8,1.8,4.4c0,38.9,2.8,91.5,3.3,101.6c0.1,1.7-0.5,3.5-1.7,4.8C657.6,346.2,655.9,346.9,654.1,346.9z M562.9,153.8&#10;&#9;&#9;&#9;c-0.5,0-1.1,0.1-1.6,0.4l-26.4,13.6c-1.5,0.7-2.2,2.4-1.7,4c13.4,45.7-3.7,63.3-5.7,65.2c-0.6,0.6-1,1.4-1.1,2.3l-5.8,101&#10;&#9;&#9;&#9;c-0.1,0.9,0.3,1.9,0.9,2.5c0.6,0.7,1.5,1.1,2.5,1.1h130.2c0.9,0,1.8-0.4,2.5-1.1c0.6-0.7,1-1.6,0.9-2.5&#10;&#9;&#9;&#9;c-0.5-10.2-3.3-62.8-3.3-101.8c0-0.9-0.3-1.7-1-2.4c-18-18.6-16.3-64.2-16-69.3c0.1-1.3-0.6-2.5-1.7-3.1l-17-10.1&#10;&#9;&#9;&#9;c-1.3-0.8-3-0.6-4.1,0.5l-24.5,23.4l-24.7-22.8C564.6,154.1,563.7,153.8,562.9,153.8z M653.4,339.8H524.7l5.8-100l0.4-0.4&#10;&#9;&#9;&#9;c4.7-4.8,19-23.7,6.8-67.1l-0.3-1.2l25.5-13.1l24.8,23c1.3,1.2,3.4,1.2,4.7,0l24.6-23.5l16.2,9.6l0,0.9&#10;&#9;&#9;&#9;c-0.5,11.8-0.6,51.7,16.7,70.4l0.4,0.4l0,0.6c0.1,36.6,2.5,84.9,3.2,98.8L653.4,339.8z M527.8,336.8h122.4&#10;&#9;&#9;&#9;c-0.8-15.6-3-61.5-3.1-96.8c-17.2-19.3-17.5-58.3-17.1-71.3l-12.7-7.5l-22.9,22c-1.2,1.1-2.8,1.8-4.4,1.8c-1.6,0-3.2-0.6-4.4-1.7&#10;&#9;&#9;&#9;l-23.3-21.5l-21.5,11c11.7,42.9-2.2,62.7-7.5,68.4L527.8,336.8z" style="fill: rgb(204, 204, 204);"/>
	</g>
</g></g></svg>