<?xml version="1.0" encoding="UTF-8"?>
<svg xmlns="http://www.w3.org/2000/svg" xmlns:xlink="http://www.w3.org/1999/xlink" width="3303.87" height="1823.78" viewBox="0 0 3303.87 1823.78">
<defs>
<clipPath id="clip-0">
<path clip-rule="nonzero" d="M 1053 188 L 2081 188 L 2081 882 L 1053 882 Z M 1053 188 "/>
</clipPath>
<clipPath id="clip-1">
<path clip-rule="evenodd" d="M 1309.671875 879.679688 C 1604.261719 904.535156 1947.691406 610.039062 2080.058594 484.070312 C 1992.441406 410.019531 1919.789062 309.75 1868.160156 188.308594 L 1821.03125 220.308594 L 1821.03125 486.78125 C 1821.03125 527.640625 1787.941406 560.730469 1747.078125 560.730469 C 1706.210938 560.730469 1673.121094 527.640625 1673.121094 486.769531 L 1673.121094 320.738281 L 1612.621094 361.808594 L 1612.621094 605.851562 C 1612.621094 646.710938 1579.519531 679.808594 1538.660156 679.808594 C 1497.800781 679.808594 1464.699219 646.710938 1464.699219 605.851562 L 1464.699219 462.238281 L 1401.960938 504.839844 L 1401.960938 689.398438 C 1401.960938 730.238281 1368.871094 763.351562 1328.011719 763.351562 C 1287.148438 763.351562 1254.050781 730.25 1254.050781 689.398438 L 1254.050781 605.269531 L 1053.710938 741.289062 C 1125.199219 825.75 1209.46875 871.191406 1309.671875 879.679688 "/>
</clipPath>
<linearGradient id="linear-pattern-0" gradientUnits="userSpaceOnUse" x1="0.376477" y1="0" x2="0.615741" y2="0" gradientTransform="matrix(0, -2993.45, 2993.45, 0, 1566.88, 2031.5)">
<stop offset="0" stop-color="rgb(98.042297%, 87.971497%, 0.442505%)" stop-opacity="1"/>
<stop offset="0.125" stop-color="rgb(98.0896%, 87.789917%, 0.45929%)" stop-opacity="1"/>
<stop offset="0.25" stop-color="rgb(98.182678%, 87.425232%, 0.494385%)" stop-opacity="1"/>
<stop offset="0.375" stop-color="rgb(98.277283%, 87.062073%, 0.52948%)" stop-opacity="1"/>
<stop offset="0.5" stop-color="rgb(98.370361%, 86.698914%, 0.564575%)" stop-opacity="1"/>
<stop offset="0.625" stop-color="rgb(98.464966%, 86.335754%, 0.59967%)" stop-opacity="1"/>
<stop offset="0.75" stop-color="rgb(98.558044%, 85.971069%, 0.634766%)" stop-opacity="1"/>
<stop offset="0.875" stop-color="rgb(98.652649%, 85.60791%, 0.669861%)" stop-opacity="1"/>
<stop offset="1" stop-color="rgb(98.745728%, 85.244751%, 0.704956%)" stop-opacity="1"/>
</linearGradient>
<clipPath id="clip-2">
<path clip-rule="nonzero" d="M 147 386 L 3059 386 L 3059 1463 L 147 1463 Z M 147 386 "/>
</clipPath>
<clipPath id="clip-3">
<path clip-rule="evenodd" d="M 2206.71875 567.558594 C 2087.511719 685.199219 1707.949219 1029.039062 1344.140625 1029.039062 C 1328.441406 1029.039062 1312.78125 1028.421875 1297.171875 1027.078125 C 1146.648438 1014.300781 1019.671875 941.246094 919.007812 809.710938 C 712.875 875.101562 292.738281 1033.671875 181.558594 1191.359375 C 131.890625 1261.820312 149.910156 1296.601562 156.699219 1309.691406 C 205.027344 1402.890625 424.492188 1462.351562 554.328125 1462.351562 L 854.355469 1462.351562 L 668.734375 1276.71875 C 639.839844 1247.851562 639.839844 1201.019531 668.734375 1172.148438 C 697.628906 1143.261719 744.433594 1143.261719 773.320312 1172.148438 L 1063.53125 1462.351562 L 1151.351562 1462.351562 L 965.71875 1276.71875 C 936.824219 1247.851562 936.824219 1201.019531 965.71875 1172.148438 C 994.613281 1143.261719 1041.421875 1143.261719 1070.308594 1172.148438 L 1360.511719 1462.351562 L 1448.320312 1462.351562 L 1262.679688 1276.71875 C 1233.78125 1247.851562 1233.78125 1201.019531 1262.679688 1172.148438 C 1291.578125 1143.261719 1338.390625 1143.261719 1367.269531 1172.148438 L 1657.5 1462.351562 L 1745.320312 1462.351562 L 1559.660156 1276.71875 C 1530.769531 1247.851562 1530.769531 1201.019531 1559.660156 1172.148438 C 1588.558594 1143.261719 1635.371094 1143.261719 1664.261719 1172.148438 L 1954.480469 1462.351562 L 2042.300781 1462.351562 L 1856.660156 1276.71875 C 1827.761719 1247.851562 1827.761719 1201.019531 1856.660156 1172.148438 C 1885.488281 1143.261719 1932.339844 1143.261719 1961.230469 1172.148438 L 2251.460938 1462.351562 L 2320.109375 1462.351562 C 2412.628906 971.527344 2870.988281 781.851562 3058.28125 724.089844 L 2951.011719 386.261719 C 2828.738281 540.410156 2657.101562 628.761719 2469.449219 628.761719 C 2376.03125 628.789062 2287.378906 607.488281 2206.71875 567.558594 "/>
</clipPath>
<linearGradient id="linear-pattern-1" gradientUnits="userSpaceOnUse" x1="-0.867264" y1="0" x2="1.852325" y2="0" gradientTransform="matrix(0, -395.681, 395.681, 0, 1603.08, 1119.19)">
<stop offset="0" stop-color="rgb(14.901733%, 53.33252%, 25.881958%)" stop-opacity="1"/>
<stop offset="0.25" stop-color="rgb(14.901733%, 53.33252%, 25.881958%)" stop-opacity="1"/>
<stop offset="0.3125" stop-color="rgb(14.901733%, 53.33252%, 25.881958%)" stop-opacity="1"/>
<stop offset="0.320312" stop-color="rgb(14.985657%, 53.381348%, 25.87738%)" stop-opacity="1"/>
<stop offset="0.324219" stop-color="rgb(15.531921%, 53.700256%, 25.852966%)" stop-opacity="1"/>
<stop offset="0.328125" stop-color="rgb(15.994263%, 53.971863%, 25.83313%)" stop-opacity="1"/>
<stop offset="0.332031" stop-color="rgb(16.456604%, 54.241943%, 25.811768%)" stop-opacity="1"/>
<stop offset="0.335938" stop-color="rgb(16.918945%, 54.51355%, 25.790405%)" stop-opacity="1"/>
<stop offset="0.339844" stop-color="rgb(17.381287%, 54.78363%, 25.769043%)" stop-opacity="1"/>
<stop offset="0.34375" stop-color="rgb(17.843628%, 55.055237%, 25.749207%)" stop-opacity="1"/>
<stop offset="0.347656" stop-color="rgb(18.305969%, 55.325317%, 25.727844%)" stop-opacity="1"/>
<stop offset="0.351562" stop-color="rgb(18.768311%, 55.596924%, 25.708008%)" stop-opacity="1"/>
<stop offset="0.355469" stop-color="rgb(19.230652%, 55.867004%, 25.686646%)" stop-opacity="1"/>
<stop offset="0.359375" stop-color="rgb(19.692993%, 56.138611%, 25.665283%)" stop-opacity="1"/>
<stop offset="0.363281" stop-color="rgb(20.155334%, 56.408691%, 25.643921%)" stop-opacity="1"/>
<stop offset="0.367188" stop-color="rgb(20.617676%, 56.680298%, 25.624084%)" stop-opacity="1"/>
<stop offset="0.371094" stop-color="rgb(21.080017%, 56.950378%, 25.602722%)" stop-opacity="1"/>
<stop offset="0.375" stop-color="rgb(21.542358%, 57.221985%, 25.582886%)" stop-opacity="1"/>
<stop offset="0.378906" stop-color="rgb(22.0047%, 57.492065%, 25.561523%)" stop-opacity="1"/>
<stop offset="0.382812" stop-color="rgb(22.468567%, 57.763672%, 25.540161%)" stop-opacity="1"/>
<stop offset="0.386719" stop-color="rgb(22.930908%, 58.033752%, 25.518799%)" stop-opacity="1"/>
<stop offset="0.390625" stop-color="rgb(23.39325%, 58.305359%, 25.498962%)" stop-opacity="1"/>
<stop offset="0.394531" stop-color="rgb(23.855591%, 58.575439%, 25.4776%)" stop-opacity="1"/>
<stop offset="0.398438" stop-color="rgb(24.317932%, 58.847046%, 25.457764%)" stop-opacity="1"/>
<stop offset="0.402344" stop-color="rgb(24.780273%, 59.117126%, 25.436401%)" stop-opacity="1"/>
<stop offset="0.40625" stop-color="rgb(25.242615%, 59.388733%, 25.416565%)" stop-opacity="1"/>
<stop offset="0.410156" stop-color="rgb(25.704956%, 59.658813%, 25.395203%)" stop-opacity="1"/>
<stop offset="0.414062" stop-color="rgb(26.167297%, 59.93042%, 25.37384%)" stop-opacity="1"/>
<stop offset="0.417969" stop-color="rgb(26.629639%, 60.2005%, 25.352478%)" stop-opacity="1"/>
<stop offset="0.421875" stop-color="rgb(27.09198%, 60.472107%, 25.332642%)" stop-opacity="1"/>
<stop offset="0.425781" stop-color="rgb(27.554321%, 60.742188%, 25.311279%)" stop-opacity="1"/>
<stop offset="0.429688" stop-color="rgb(28.016663%, 61.012268%, 25.291443%)" stop-opacity="1"/>
<stop offset="0.433594" stop-color="rgb(28.479004%, 61.282349%, 25.270081%)" stop-opacity="1"/>
<stop offset="0.4375" stop-color="rgb(28.941345%, 61.553955%, 25.248718%)" stop-opacity="1"/>
<stop offset="0.441406" stop-color="rgb(29.403687%, 61.824036%, 25.227356%)" stop-opacity="1"/>
<stop offset="0.445312" stop-color="rgb(29.866028%, 62.095642%, 25.20752%)" stop-opacity="1"/>
<stop offset="0.449219" stop-color="rgb(30.328369%, 62.365723%, 25.186157%)" stop-opacity="1"/>
<stop offset="0.453125" stop-color="rgb(30.792236%, 62.637329%, 25.166321%)" stop-opacity="1"/>
<stop offset="0.457031" stop-color="rgb(31.254578%, 62.90741%, 25.144958%)" stop-opacity="1"/>
<stop offset="0.460938" stop-color="rgb(31.716919%, 63.179016%, 25.123596%)" stop-opacity="1"/>
<stop offset="0.464844" stop-color="rgb(32.17926%, 63.449097%, 25.102234%)" stop-opacity="1"/>
<stop offset="0.46875" stop-color="rgb(32.641602%, 63.720703%, 25.082397%)" stop-opacity="1"/>
<stop offset="0.472656" stop-color="rgb(33.103943%, 63.990784%, 25.061035%)" stop-opacity="1"/>
<stop offset="0.476562" stop-color="rgb(33.566284%, 64.26239%, 25.041199%)" stop-opacity="1"/>
<stop offset="0.480469" stop-color="rgb(34.028625%, 64.532471%, 25.019836%)" stop-opacity="1"/>
<stop offset="0.484375" stop-color="rgb(34.490967%, 64.804077%, 24.998474%)" stop-opacity="1"/>
<stop offset="0.488281" stop-color="rgb(34.953308%, 65.074158%, 24.977112%)" stop-opacity="1"/>
<stop offset="0.492188" stop-color="rgb(35.415649%, 65.345764%, 24.957275%)" stop-opacity="1"/>
<stop offset="0.496094" stop-color="rgb(35.877991%, 65.615845%, 24.935913%)" stop-opacity="1"/>
<stop offset="0.5" stop-color="rgb(36.340332%, 65.887451%, 24.916077%)" stop-opacity="1"/>
<stop offset="0.503906" stop-color="rgb(36.802673%, 66.157532%, 24.894714%)" stop-opacity="1"/>
<stop offset="0.507812" stop-color="rgb(37.265015%, 66.429138%, 24.874878%)" stop-opacity="1"/>
<stop offset="0.511719" stop-color="rgb(37.727356%, 66.699219%, 24.853516%)" stop-opacity="1"/>
<stop offset="0.515625" stop-color="rgb(38.191223%, 66.970825%, 24.832153%)" stop-opacity="1"/>
<stop offset="0.519531" stop-color="rgb(38.653564%, 67.240906%, 24.810791%)" stop-opacity="1"/>
<stop offset="0.523438" stop-color="rgb(39.115906%, 67.512512%, 24.790955%)" stop-opacity="1"/>
<stop offset="0.527344" stop-color="rgb(39.578247%, 67.782593%, 24.769592%)" stop-opacity="1"/>
<stop offset="0.53125" stop-color="rgb(40.040588%, 68.054199%, 24.749756%)" stop-opacity="1"/>
<stop offset="0.535156" stop-color="rgb(40.50293%, 68.32428%, 24.728394%)" stop-opacity="1"/>
<stop offset="0.539062" stop-color="rgb(40.965271%, 68.595886%, 24.707031%)" stop-opacity="1"/>
<stop offset="0.542969" stop-color="rgb(41.427612%, 68.865967%, 24.685669%)" stop-opacity="1"/>
<stop offset="0.546875" stop-color="rgb(41.889954%, 69.136047%, 24.665833%)" stop-opacity="1"/>
<stop offset="0.550781" stop-color="rgb(42.352295%, 69.406128%, 24.64447%)" stop-opacity="1"/>
<stop offset="0.554688" stop-color="rgb(42.814636%, 69.677734%, 24.624634%)" stop-opacity="1"/>
<stop offset="0.558594" stop-color="rgb(43.276978%, 69.947815%, 24.603271%)" stop-opacity="1"/>
<stop offset="0.5625" stop-color="rgb(43.739319%, 70.219421%, 24.581909%)" stop-opacity="1"/>
<stop offset="0.566406" stop-color="rgb(44.20166%, 70.489502%, 24.560547%)" stop-opacity="1"/>
<stop offset="0.570312" stop-color="rgb(44.664001%, 70.761108%, 24.54071%)" stop-opacity="1"/>
<stop offset="0.574219" stop-color="rgb(45.126343%, 71.031189%, 24.519348%)" stop-opacity="1"/>
<stop offset="0.578125" stop-color="rgb(45.588684%, 71.302795%, 24.499512%)" stop-opacity="1"/>
<stop offset="0.582031" stop-color="rgb(46.051025%, 71.572876%, 24.478149%)" stop-opacity="1"/>
<stop offset="0.585938" stop-color="rgb(46.514893%, 71.844482%, 24.458313%)" stop-opacity="1"/>
<stop offset="0.589844" stop-color="rgb(46.977234%, 72.114563%, 24.436951%)" stop-opacity="1"/>
<stop offset="0.59375" stop-color="rgb(47.439575%, 72.386169%, 24.415588%)" stop-opacity="1"/>
<stop offset="0.597656" stop-color="rgb(47.901917%, 72.65625%, 24.394226%)" stop-opacity="1"/>
<stop offset="0.601562" stop-color="rgb(48.364258%, 72.927856%, 24.37439%)" stop-opacity="1"/>
<stop offset="0.605469" stop-color="rgb(48.826599%, 73.197937%, 24.353027%)" stop-opacity="1"/>
<stop offset="0.609375" stop-color="rgb(49.28894%, 73.469543%, 24.333191%)" stop-opacity="1"/>
<stop offset="0.613281" stop-color="rgb(49.751282%, 73.739624%, 24.311829%)" stop-opacity="1"/>
<stop offset="0.617188" stop-color="rgb(50.213623%, 74.01123%, 24.290466%)" stop-opacity="1"/>
<stop offset="0.621094" stop-color="rgb(50.675964%, 74.281311%, 24.269104%)" stop-opacity="1"/>
<stop offset="0.625" stop-color="rgb(51.138306%, 74.552917%, 24.249268%)" stop-opacity="1"/>
<stop offset="0.628906" stop-color="rgb(51.600647%, 74.822998%, 24.227905%)" stop-opacity="1"/>
<stop offset="0.632813" stop-color="rgb(52.062988%, 75.094604%, 24.208069%)" stop-opacity="1"/>
<stop offset="0.636719" stop-color="rgb(52.52533%, 75.364685%, 24.186707%)" stop-opacity="1"/>
<stop offset="0.640625" stop-color="rgb(52.987671%, 75.636292%, 24.165344%)" stop-opacity="1"/>
<stop offset="0.644531" stop-color="rgb(53.450012%, 75.906372%, 24.143982%)" stop-opacity="1"/>
<stop offset="0.648438" stop-color="rgb(53.913879%, 76.177979%, 24.124146%)" stop-opacity="1"/>
<stop offset="0.652344" stop-color="rgb(54.376221%, 76.448059%, 24.102783%)" stop-opacity="1"/>
<stop offset="0.65625" stop-color="rgb(54.838562%, 76.719666%, 24.082947%)" stop-opacity="1"/>
<stop offset="0.660156" stop-color="rgb(55.300903%, 76.989746%, 24.061584%)" stop-opacity="1"/>
<stop offset="0.664062" stop-color="rgb(55.763245%, 77.259827%, 24.041748%)" stop-opacity="1"/>
<stop offset="0.667969" stop-color="rgb(56.225586%, 77.529907%, 24.020386%)" stop-opacity="1"/>
<stop offset="0.671875" stop-color="rgb(56.687927%, 77.801514%, 23.999023%)" stop-opacity="1"/>
<stop offset="0.675781" stop-color="rgb(57.150269%, 78.071594%, 23.977661%)" stop-opacity="1"/>
<stop offset="0.679688" stop-color="rgb(57.61261%, 78.343201%, 23.957825%)" stop-opacity="1"/>
<stop offset="0.683594" stop-color="rgb(58.021545%, 78.582764%, 23.939514%)" stop-opacity="1"/>
<stop offset="0.6875" stop-color="rgb(58.430481%, 78.822327%, 23.921204%)" stop-opacity="1"/>
<stop offset="0.75" stop-color="rgb(58.430481%, 78.822327%, 23.921204%)" stop-opacity="1"/>
<stop offset="1" stop-color="rgb(58.430481%, 78.822327%, 23.921204%)" stop-opacity="1"/>
</linearGradient>
<clipPath id="clip-4">
<path clip-rule="nonzero" d="M 2471 864 L 3156 864 L 3156 1463 L 2471 1463 Z M 2471 864 "/>
</clipPath>
<clipPath id="clip-5">
<path clip-rule="evenodd" d="M 3102.75 864.113281 C 2948.191406 909.238281 2562.101562 1060.460938 2471 1462.351562 L 2687.859375 1462.351562 C 2863.640625 1462.351562 3015.820312 1397.738281 3094.960938 1289.558594 C 3160.160156 1200.421875 3172.980469 1085.140625 3131.96875 956.152344 L 3102.75 864.113281 "/>
</clipPath>
<linearGradient id="linear-pattern-2" gradientUnits="userSpaceOnUse" x1="0.130396" y1="0" x2="0.898795" y2="0" gradientTransform="matrix(0, -778.549, 778.549, 0, 2813.24, 1563.87)">
<stop offset="0" stop-color="rgb(97.271729%, 90.963745%, 0.152588%)" stop-opacity="1"/>
<stop offset="0.03125" stop-color="rgb(97.30835%, 90.817261%, 0.166321%)" stop-opacity="1"/>
<stop offset="0.0625" stop-color="rgb(97.383118%, 90.524292%, 0.195312%)" stop-opacity="1"/>
<stop offset="0.09375" stop-color="rgb(97.459412%, 90.232849%, 0.222778%)" stop-opacity="1"/>
<stop offset="0.125" stop-color="rgb(97.53418%, 89.941406%, 0.25177%)" stop-opacity="1"/>
<stop offset="0.15625" stop-color="rgb(97.608948%, 89.648438%, 0.279236%)" stop-opacity="1"/>
<stop offset="0.1875" stop-color="rgb(97.685242%, 89.356995%, 0.308228%)" stop-opacity="1"/>
<stop offset="0.21875" stop-color="rgb(97.76001%, 89.065552%, 0.335693%)" stop-opacity="1"/>
<stop offset="0.25" stop-color="rgb(97.836304%, 88.772583%, 0.364685%)" stop-opacity="1"/>
<stop offset="0.28125" stop-color="rgb(97.911072%, 88.48114%, 0.392151%)" stop-opacity="1"/>
<stop offset="0.3125" stop-color="rgb(97.98584%, 88.189697%, 0.421143%)" stop-opacity="1"/>
<stop offset="0.34375" stop-color="rgb(98.062134%, 87.896729%, 0.448608%)" stop-opacity="1"/>
<stop offset="0.375" stop-color="rgb(98.136902%, 87.605286%, 0.4776%)" stop-opacity="1"/>
<stop offset="0.40625" stop-color="rgb(98.21167%, 87.313843%, 0.505066%)" stop-opacity="1"/>
<stop offset="0.4375" stop-color="rgb(98.287964%, 87.0224%, 0.534058%)" stop-opacity="1"/>
<stop offset="0.46875" stop-color="rgb(98.362732%, 86.729431%, 0.561523%)" stop-opacity="1"/>
<stop offset="0.5" stop-color="rgb(98.4375%, 86.437988%, 0.590515%)" stop-opacity="1"/>
<stop offset="0.53125" stop-color="rgb(98.513794%, 86.146545%, 0.617981%)" stop-opacity="1"/>
<stop offset="0.5625" stop-color="rgb(98.588562%, 85.853577%, 0.646973%)" stop-opacity="1"/>
<stop offset="0.59375" stop-color="rgb(98.664856%, 85.562134%, 0.674438%)" stop-opacity="1"/>
<stop offset="0.625" stop-color="rgb(98.739624%, 85.270691%, 0.70343%)" stop-opacity="1"/>
<stop offset="0.65625" stop-color="rgb(98.814392%, 84.977722%, 0.730896%)" stop-opacity="1"/>
<stop offset="0.6875" stop-color="rgb(98.890686%, 84.686279%, 0.759888%)" stop-opacity="1"/>
<stop offset="0.71875" stop-color="rgb(98.965454%, 84.394836%, 0.787354%)" stop-opacity="1"/>
<stop offset="0.75" stop-color="rgb(99.040222%, 84.101868%, 0.816345%)" stop-opacity="1"/>
<stop offset="0.78125" stop-color="rgb(99.116516%, 83.810425%, 0.843811%)" stop-opacity="1"/>
<stop offset="0.8125" stop-color="rgb(99.191284%, 83.518982%, 0.872803%)" stop-opacity="1"/>
<stop offset="0.84375" stop-color="rgb(99.267578%, 83.226013%, 0.900269%)" stop-opacity="1"/>
<stop offset="0.875" stop-color="rgb(99.342346%, 82.93457%, 0.92926%)" stop-opacity="1"/>
<stop offset="0.90625" stop-color="rgb(99.417114%, 82.643127%, 0.956726%)" stop-opacity="1"/>
<stop offset="0.9375" stop-color="rgb(99.493408%, 82.351685%, 0.985718%)" stop-opacity="1"/>
<stop offset="0.96875" stop-color="rgb(99.568176%, 82.058716%, 1.013184%)" stop-opacity="1"/>
<stop offset="1" stop-color="rgb(99.642944%, 81.767273%, 1.042175%)" stop-opacity="1"/>
</linearGradient>
</defs>
<path fill-rule="evenodd" fill="rgb(0%, 0%, 0.784302%)" fill-opacity="1" d="M 2471 1462.351562 C 2562.101562 1060.460938 2948.191406 909.238281 3102.75 864.113281 L 3131.96875 956.152344 C 3172.980469 1085.140625 3160.160156 1200.421875 3094.960938 1289.558594 C 3015.820312 1397.738281 2863.640625 1462.351562 2687.859375 1462.351562 Z M 1868.160156 188.308594 C 1919.789062 309.75 1992.441406 410.019531 2080.058594 484.070312 C 1947.691406 610.039062 1604.261719 904.535156 1309.671875 879.679688 C 1209.46875 871.191406 1125.199219 825.75 1053.710938 741.289062 L 1254.050781 605.269531 L 1254.050781 689.398438 C 1254.050781 730.25 1287.148438 763.351562 1328.011719 763.351562 C 1368.871094 763.351562 1401.960938 730.238281 1401.960938 689.398438 L 1401.960938 504.839844 L 1464.699219 462.238281 L 1464.699219 605.851562 C 1464.699219 646.710938 1497.800781 679.808594 1538.660156 679.808594 C 1579.519531 679.808594 1612.621094 646.710938 1612.621094 605.851562 L 1612.621094 361.808594 L 1673.121094 320.738281 L 1673.121094 486.769531 C 1673.121094 527.640625 1706.210938 560.730469 1747.078125 560.730469 C 1787.941406 560.730469 1821.03125 527.640625 1821.03125 486.78125 L 1821.03125 220.308594 Z M 2564.628906 1610.308594 L 2442.421875 1610.308594 L 2442.421875 1749.820312 C 2442.421875 1790.667969 2409.320312 1823.78125 2368.46875 1823.78125 C 2327.601562 1823.78125 2294.511719 1790.679688 2294.511719 1749.820312 L 2294.511719 1610.308594 L 1511.308594 1610.308594 L 1511.308594 1749.820312 C 1511.308594 1790.667969 1478.21875 1823.78125 1437.351562 1823.78125 C 1396.488281 1823.78125 1363.390625 1790.679688 1363.390625 1749.820312 L 1363.390625 1610.308594 L 1242.960938 1610.308594 L 1242.960938 1749.820312 C 1242.960938 1790.667969 1209.859375 1823.78125 1169 1823.78125 C 1128.128906 1823.78125 1095.039062 1790.679688 1095.039062 1749.820312 L 1095.039062 1610.308594 L 974.601562 1610.308594 L 974.601562 1749.820312 C 974.570312 1790.667969 941.472656 1823.78125 900.640625 1823.78125 C 859.78125 1823.78125 826.679688 1790.679688 826.679688 1749.820312 L 826.679688 1610.308594 L 706.214844 1610.308594 L 706.214844 1749.820312 C 706.214844 1790.667969 673.117188 1823.78125 632.253906 1823.78125 C 591.394531 1823.78125 558.300781 1790.679688 558.300781 1749.820312 L 558.300781 1610.308594 L 554.320312 1610.308594 C 421.085938 1610.308594 116.480469 1553.480469 25.390625 1377.800781 C -4.816406 1319.53125 -23.230469 1225.128906 60.652344 1106.148438 C 226.367188 871.105469 807.222656 688.390625 916.414062 655.699219 L 1272.511719 413.921875 C 1280.699219 404.640625 1291.191406 397.421875 1303.089844 393.160156 L 1702.128906 122.238281 C 1704.378906 120.511719 1706.730469 118.921875 1709.160156 117.46875 L 1863.359375 12.769531 C 1882.730469 -0.378906 1907.25 -3.589844 1929.28125 4.140625 C 1951.359375 11.859375 1968.53125 29.589844 1975.511719 51.929688 C 2058.128906 316.539062 2247.378906 480.890625 2469.449219 480.890625 C 2650.839844 480.890625 2814.449219 368.328125 2907 179.808594 C 2920.328125 152.730469 2949.089844 136.390625 2978.878906 138.648438 C 3009.011719 140.890625 3034.738281 161.230469 3043.878906 190.011719 L 3272.96875 911.390625 C 3343.539062 1133.46875 3280.039062 1287.121094 3214.359375 1376.898438 C 3111.421875 1517.640625 2925.109375 1603.730469 2712.539062 1609.929688 L 2712.539062 1749.820312 C 2712.539062 1790.667969 2679.449219 1823.78125 2638.578125 1823.78125 C 2597.730469 1823.78125 2564.628906 1790.679688 2564.628906 1749.820312 Z M 2042.300781 1462.351562 L 1856.660156 1276.71875 C 1827.761719 1247.851562 1827.761719 1201.019531 1856.660156 1172.148438 C 1885.488281 1143.261719 1932.339844 1143.261719 1961.230469 1172.148438 L 2251.460938 1462.351562 L 2320.109375 1462.351562 C 2412.628906 971.527344 2870.988281 781.851562 3058.28125 724.089844 L 2951.011719 386.261719 C 2828.738281 540.410156 2657.101562 628.761719 2469.449219 628.761719 C 2376.03125 628.789062 2287.378906 607.488281 2206.71875 567.558594 C 2087.511719 685.199219 1707.949219 1029.039062 1344.140625 1029.039062 C 1328.441406 1029.039062 1312.78125 1028.421875 1297.171875 1027.078125 C 1146.648438 1014.300781 1019.671875 941.246094 919.007812 809.710938 C 712.875 875.101562 292.738281 1033.671875 181.558594 1191.359375 C 131.890625 1261.820312 149.910156 1296.601562 156.699219 1309.691406 C 205.027344 1402.890625 424.492188 1462.351562 554.328125 1462.351562 L 854.355469 1462.351562 L 668.734375 1276.71875 C 639.839844 1247.851562 639.839844 1201.019531 668.734375 1172.148438 C 697.628906 1143.261719 744.433594 1143.261719 773.320312 1172.148438 L 1063.53125 1462.351562 L 1151.351562 1462.351562 L 965.71875 1276.71875 C 936.824219 1247.851562 936.824219 1201.019531 965.71875 1172.148438 C 994.613281 1143.261719 1041.421875 1143.261719 1070.308594 1172.148438 L 1360.511719 1462.351562 L 1448.320312 1462.351562 L 1262.679688 1276.71875 C 1233.78125 1247.851562 1233.78125 1201.019531 1262.679688 1172.148438 C 1291.578125 1143.261719 1338.390625 1143.261719 1367.269531 1172.148438 L 1657.5 1462.351562 L 1745.320312 1462.351562 L 1559.660156 1276.71875 C 1530.769531 1247.851562 1530.769531 1201.019531 1559.660156 1172.148438 C 1588.558594 1143.261719 1635.371094 1143.261719 1664.261719 1172.148438 L 1954.480469 1462.351562 L 2042.300781 1462.351562 "/>
<g clip-path="url(#clip-0)">
<g clip-path="url(#clip-1)">
<path fill-rule="nonzero" fill="url(#linear-pattern-0)" d="M 1053.710938 904.535156 L 2080.058594 904.535156 L 2080.058594 188.308594 L 1053.710938 188.308594 Z M 1053.710938 904.535156 "/>
</g>
</g>
<g clip-path="url(#clip-2)">
<g clip-path="url(#clip-3)">
<path fill-rule="nonzero" fill="url(#linear-pattern-1)" d="M 131.890625 1462.351562 L 3058.28125 1462.351562 L 3058.28125 386.261719 L 131.890625 386.261719 Z M 131.890625 1462.351562 "/>
</g>
</g>
<g clip-path="url(#clip-4)">
<g clip-path="url(#clip-5)">
<path fill-rule="nonzero" fill="url(#linear-pattern-2)" d="M 2471 1462.351562 L 3172.980469 1462.351562 L 3172.980469 864.113281 L 2471 864.113281 Z M 2471 1462.351562 "/>
</g>
</g>
</svg>
