<?xml version="1.0" encoding="utf-8"?>
<svg viewBox="155.99996948242188 150.6999969482422 325.2000732421875 326.0999755859375" width="325.2000732421875" height="326.0999755859375" xmlns="http://www.w3.org/2000/svg"><g transform="matrix(1, 0, 0, 1, 1.1368683772161603e-13, 0)"><path class="st3" d="M208.5,236.5l39.2,23.8l83.7-16.6l21.9-62.1l-27.2-30.1c-2.5-0.1-5-0.2-7.5-0.2c-44.6,0-85,18.1-114.4,47.2&#10;&#9;&#9;&#9;L208.5,236.5z" style="fill: rgb(204, 204, 204); stroke: rgb(204, 204, 204);" transform="matrix(1, 0, 0, 1, 1.1368683772161603e-13, 0)"/><path class="st3" d="M412.8,181.5l-46.5,4.8l-21.9,62.1l43.3,57.7l59.7-8.7l26.2-32.7C462.7,230.8,441.1,201.7,412.8,181.5z" style="fill: rgb(204, 204, 204); stroke: rgb(204, 204, 204);" transform="matrix(1, 0, 0, 1, 1.1368683772161603e-13, 0)"/><path class="st3" d="M331.9,396.1l-83.2-22.2l-28.4,24.4l7.3,50.2c24.7,16.7,54.1,26.8,85.9,27.8l39.1-35.2L331.9,396.1z" style="fill: rgb(204, 204, 204); stroke: rgb(204, 204, 204);" transform="matrix(1, 0, 0, 1, 1.1368683772161603e-13, 0)"/><path class="st3" d="M211.5,387.6l28.4-24.4v-91.4l-37.7-22.9l-42.9,32.6c-2.1,10.5-3.3,21.4-3.3,32.5c0,19.5,3.5,38.2,9.8,55.6&#10;&#9;&#9;&#9;L211.5,387.6z" style="fill: rgb(204, 204, 204); stroke: rgb(204, 204, 204);" transform="matrix(1, 0, 0, 1, 1.1368683772161603e-13, 0)"/><path class="st3" d="M447.6,311.3l-58.6,8.6l-44.4,70.7l21,45.6l52.2,6.3c25.4-19.7,44.9-46.7,55.1-77.9L447.6,311.3z" style="fill: rgb(204, 204, 204); stroke: rgb(204, 204, 204);" transform="matrix(1, 0, 0, 1, 1.1368683772161603e-13, 0)"/><path d="M 257.20001220703125 276 L 257.20001220703125 358.20001220703125 L 332 378.20001220703125 L 372.1000061035156 314.29998779296875 L 332.20001220703125 261.1000061035156 Z" class="st4" style="fill: rgb(204, 204, 204); stroke: rgb(204, 204, 204);" transform="matrix(1, 0, 0, 1, 1.1368683772161603e-13, 0)"/><path d="M 348.70001220703125 150.6999969482422 L 365.29998779296875 169 L 393.29998779296875 166.10000610351562 Z" class="st4" style="fill: rgb(204, 204, 204); stroke: rgb(204, 204, 204);" transform="matrix(1, 0, 0, 1, 1.1368683772161603e-13, 0)"/><path d="M 163.60000610351562 256.3999938964844 L 191 235.60000610351562 L 188.1999969482422 210.89999389648438 Z" class="st4" style="fill: rgb(204, 204, 204); stroke: rgb(204, 204, 204);" transform="matrix(1, 0, 0, 1, 1.1368683772161603e-13, 0)"/><path d="M 203.60000610351562 403 L 171.89999389648438 390.3999938964844 L 208.60000610351562 437.3999938964844 Z" class="st4" style="fill: rgb(204, 204, 204); stroke: rgb(204, 204, 204);" transform="matrix(1, 0, 0, 1, 1.1368683772161603e-13, 0)"/><path class="st4" d="M348.8,473.5c13.7-2.6,26.7-6.8,38.9-12.6l10.6-3.4l-33.6-4l-25.9,23.3L348.8,473.5z" style="fill: rgb(204, 204, 204); stroke: rgb(204, 204, 204);" transform="matrix(1, 0, 0, 1, 1.1368683772161603e-13, 0)"/><path d="M 463.6000061035156 304.6000061035156 L 481.20001220703125 341.5 L 481.20001220703125 282.70001220703125 Z" class="st4" style="fill: rgb(204, 204, 204); stroke: rgb(204, 204, 204);" transform="matrix(1, 0, 0, 1, 1.1368683772161603e-13, 0)"/></g></svg>