<?xml version="1.0" encoding="UTF-8"?>
<svg xmlns="http://www.w3.org/2000/svg" xmlns:xlink="http://www.w3.org/1999/xlink" width="4000" height="4000" viewBox="0 0 4000 4000">

<path fill-rule="nonzero" fill="rgb(0.799561%, 4.699707%, 19.993591%)" fill-opacity="1" d="M 2000 834.289062 C 1357.398438 834.289062 834.292969 1357.398438 834.292969 2000 C 834.292969 2642.601562 1357.398438 3165.707031 2000 3165.707031 C 2642.601562 3165.707031 3165.710938 2642.601562 3165.710938 2000 C 3165.710938 1357.398438 2642.601562 834.289062 2000 834.289062 "/>
<path fill-rule="nonzero" fill="rgb(100%, 100%, 100%)" fill-opacity="1" d="M 1760.589844 967.820312 C 1486.550781 1031.378906 1248.808594 1201.53125 1100.238281 1440.410156 C 1141.898438 1422.640625 1191.851562 1402.449219 1242.691406 1384.390625 C 1279.78125 1343.460938 1333.261719 1288.109375 1380.109375 1253.710938 C 1380.109375 1253.710938 1317.511719 1337.410156 1276 1398.929688 C 1278.941406 1444.738281 1286.128906 1549.519531 1296.191406 1647.199219 L 1378.828125 1710.910156 L 1287.878906 1695.878906 C 1219.300781 1777.339844 1168.679688 1840.449219 1134.171875 1884.929688 L 1113.878906 2171.519531 C 1093.328125 2115 1066.601562 2002.628906 1052.828125 1942.289062 C 1018.53125 1907.078125 985.398438 1863.480469 955.855469 1819.769531 C 945.582031 1879.300781 940.414062 1939.589844 940.414062 2000 C 940.414062 2265.441406 1040.160156 2521.429688 1219.761719 2716.890625 C 1219.269531 2609.890625 1226.070312 2493.71875 1227.011719 2478.179688 C 1200.140625 2399.949219 1182.320312 2319.210938 1182.320312 2319.210938 L 1291 2493.101562 C 1390.78125 2523.089844 1475.929688 2536.910156 1519.199219 2542.621094 L 1627.179688 2445.289062 L 1566.648438 2581.140625 C 1595.511719 2638.039062 1659.089844 2751.859375 1740.011719 2827.578125 C 1786.800781 2838 1853.929688 2850.988281 1929.75 2859.519531 C 1929.75 2859.519531 1841.851562 2870.5 1750.859375 2870.851562 C 1684.179688 2919.769531 1587.671875 2941.859375 1532.769531 2951 C 1678.160156 3022.429688 1838.011719 3059.578125 1999.988281 3059.578125 C 2161.980469 3059.578125 2321.828125 3022.429688 2467.210938 2951 C 2412.320312 2941.859375 2315.808594 2919.769531 2249.128906 2870.851562 C 2158.140625 2870.488281 2070.238281 2859.519531 2070.238281 2859.519531 C 2146.058594 2850.988281 2213.191406 2838 2259.980469 2827.578125 C 2340.890625 2751.859375 2404.480469 2638.039062 2433.339844 2581.140625 L 2372.808594 2445.289062 L 2480.789062 2542.621094 C 2524.058594 2536.910156 2609.210938 2523.089844 2708.988281 2493.101562 L 2817.671875 2319.210938 C 2817.671875 2319.210938 2799.851562 2399.949219 2772.980469 2478.179688 C 2773.921875 2493.71875 2780.71875 2609.878906 2780.230469 2716.890625 C 2959.820312 2521.429688 3059.570312 2265.441406 3059.570312 2000 C 3059.570312 1939.589844 3054.410156 1879.300781 3044.128906 1819.769531 C 3014.589844 1863.480469 2981.449219 1907.078125 2947.160156 1942.289062 C 2933.378906 2002.628906 2906.660156 2115 2886.109375 2171.519531 L 2865.820312 1884.929688 C 2831.308594 1840.449219 2780.691406 1777.339844 2712.109375 1695.878906 L 2621.160156 1710.910156 L 2703.800781 1647.199219 C 2713.859375 1549.519531 2721.039062 1444.738281 2723.988281 1398.929688 C 2682.480469 1337.410156 2619.878906 1253.710938 2619.878906 1253.710938 C 2666.730469 1288.109375 2720.199219 1343.460938 2757.300781 1384.390625 C 2808.140625 1402.449219 2858.089844 1422.640625 2899.75 1440.410156 C 2751.179688 1201.53125 2513.429688 1031.378906 2239.398438 967.820312 L 2317.96875 1073.53125 C 2362.890625 1087.550781 2419.269531 1108.128906 2463.238281 1133.988281 C 2463.238281 1133.988281 2363.070312 1108.359375 2274.109375 1091.359375 C 2211.660156 1103.96875 2103.78125 1128.601562 2026.71875 1161.410156 L 1999.988281 1359.410156 L 1973.269531 1161.410156 C 1896.210938 1128.601562 1788.328125 1103.96875 1725.878906 1091.359375 C 1636.910156 1108.359375 1536.75 1133.988281 1536.75 1133.988281 C 1580.71875 1108.128906 1637.101562 1087.550781 1682.019531 1073.53125 Z M 1999.988281 1465.109375 L 2027.550781 1575.351562 C 2077.511719 1605.25 2189.320312 1676.25 2311.410156 1780.441406 L 2439.039062 1765.671875 L 2329.101562 1830.171875 C 2307.96875 1889.519531 2252.640625 2042.421875 2209.75 2138.121094 L 2278.578125 2318.378906 L 2153.828125 2177.660156 C 2117.320312 2181.339844 2059.960938 2185.929688 1999.988281 2185.929688 C 1940.03125 2185.929688 1882.671875 2181.339844 1846.160156 2177.660156 L 1721.410156 2318.378906 L 1790.238281 2138.121094 C 1747.351562 2042.421875 1692.019531 1889.519531 1670.890625 1830.171875 L 1560.949219 1765.671875 L 1688.578125 1780.441406 C 1810.671875 1676.25 1922.480469 1605.25 1972.441406 1575.351562 L 1999.988281 1465.109375 "/>
<path fill-rule="nonzero" fill="rgb(77.34375%, 77.34375%, 77.34375%)" fill-opacity="1" d="M 2274.351562 1014.828125 L 2317.96875 1073.53125 C 2362.890625 1087.550781 2419.269531 1108.128906 2463.238281 1133.988281 C 2463.238281 1133.988281 2363.070312 1108.359375 2274.109375 1091.359375 C 2211.660156 1103.96875 2103.78125 1128.601562 2026.71875 1161.410156 L 1999.988281 1359.410156 L 1973.269531 1161.410156 C 1896.210938 1128.601562 1788.328125 1103.96875 1725.878906 1091.359375 C 1636.910156 1108.359375 1536.75 1133.988281 1536.75 1133.988281 C 1580.71875 1108.128906 1637.101562 1087.550781 1682.019531 1073.53125 L 1725.640625 1014.839844 C 1494.398438 1079.289062 1295.960938 1223.140625 1161.671875 1415.050781 C 1187.628906 1404.691406 1215 1394.21875 1242.691406 1384.390625 C 1279.78125 1343.460938 1333.261719 1288.109375 1380.109375 1253.710938 C 1380.109375 1253.710938 1317.511719 1337.410156 1276 1398.929688 C 1278.941406 1444.738281 1286.128906 1549.519531 1296.191406 1647.199219 L 1378.828125 1710.910156 L 1287.878906 1695.878906 C 1230.03125 1764.589844 1185.121094 1820.078125 1151.710938 1862.511719 L 1191.621094 1896.839844 L 1121.578125 2287.820312 L 1026.058594 1957.96875 L 981.359375 1910.710938 C 978.796875 1940.140625 977.464844 1969.921875 977.464844 2000 C 977.464844 2251.71875 1068.828125 2482.441406 1220.148438 2660.769531 C 1221.519531 2572.539062 1226.238281 2491.011719 1227.011719 2478.179688 C 1200.140625 2399.949219 1182.320312 2319.210938 1182.320312 2319.210938 L 1291 2493.101562 L 1543.25 2520.929688 L 1627.179688 2445.289062 L 1598.359375 2588.46875 C 1598.359375 2588.46875 1680.660156 2734.820312 1753.25 2801.050781 C 1753.25 2801.050781 1834.109375 2826.519531 1999.988281 2835.441406 C 2165.878906 2826.519531 2246.738281 2801.050781 2246.738281 2801.050781 C 2319.328125 2734.820312 2401.628906 2588.46875 2401.628906 2588.46875 L 2372.808594 2445.289062 L 2488.359375 2517.441406 L 2708.988281 2493.101562 L 2817.671875 2319.210938 C 2817.671875 2319.210938 2799.851562 2399.949219 2772.980469 2478.179688 C 2773.75 2491.011719 2778.46875 2572.550781 2779.839844 2660.78125 C 2931.160156 2482.449219 3022.53125 2251.71875 3022.53125 2000 C 3022.53125 1953.609375 3019.421875 1907.941406 3013.410156 1863.179688 C 2992.308594 1891.628906 2970 1918.839844 2947.160156 1942.289062 C 2933.378906 2002.628906 2906.660156 2115 2886.109375 2171.519531 L 2865.820312 1884.929688 C 2831.308594 1840.449219 2780.691406 1777.339844 2712.109375 1695.878906 L 2621.160156 1710.910156 L 2703.800781 1647.199219 C 2713.859375 1549.519531 2721.039062 1444.738281 2723.988281 1398.929688 C 2682.480469 1337.410156 2619.878906 1253.710938 2619.878906 1253.710938 C 2666.71875 1288.109375 2720.199219 1343.460938 2757.300781 1384.390625 C 2784.988281 1394.230469 2812.371094 1404.691406 2838.339844 1415.058594 C 2704.039062 1223.140625 2505.601562 1079.289062 2274.351562 1014.828125 Z M 1999.988281 1465.109375 L 2027.550781 1575.351562 C 2077.511719 1605.25 2189.320312 1676.25 2311.410156 1780.441406 L 2439.039062 1765.671875 L 2329.101562 1830.179688 C 2307.96875 1889.519531 2252.640625 2042.421875 2209.75 2138.121094 L 2278.578125 2318.378906 L 2153.828125 2177.660156 C 2117.320312 2181.339844 2059.960938 2185.929688 1999.988281 2185.929688 C 1940.03125 2185.929688 1882.671875 2181.339844 1846.160156 2177.660156 L 1721.410156 2318.378906 L 1790.238281 2138.121094 C 1747.351562 2042.421875 1692.019531 1889.519531 1670.890625 1830.179688 L 1560.949219 1765.671875 L 1688.578125 1780.441406 C 1810.671875 1676.25 1922.480469 1605.25 1972.441406 1575.351562 Z M 1999.988281 2885.101562 C 1999.988281 2885.101562 1853.859375 2897.839844 1765.988281 2900.378906 C 1765.988281 2900.378906 1705.390625 2929.851562 1637.839844 2956.300781 C 1750.460938 2999.078125 1872.53125 3022.535156 2000 3022.535156 C 2127.46875 3022.535156 2249.539062 2999.089844 2362.160156 2956.308594 C 2294.601562 2929.851562 2234 2900.378906 2234 2900.378906 C 2146.128906 2897.839844 1999.988281 2885.101562 1999.988281 2885.101562 "/>
<path fill-rule="nonzero" fill="rgb(99.609375%, 100%, 100%)" fill-opacity="1" d="M 1760.589844 967.820312 C 1486.550781 1031.378906 1248.808594 1201.53125 1100.238281 1440.410156 C 1141.898438 1422.640625 1191.851562 1402.449219 1242.691406 1384.390625 C 1279.78125 1343.460938 1333.261719 1288.109375 1380.109375 1253.710938 C 1380.109375 1253.710938 1317.511719 1337.410156 1276 1398.929688 C 1278.941406 1444.738281 1286.128906 1549.519531 1296.191406 1647.199219 L 1378.828125 1710.910156 L 1287.878906 1695.878906 C 1219.300781 1777.339844 1168.679688 1840.449219 1134.171875 1884.929688 L 1115.96875 2141.980469 C 1216.550781 2308.78125 1365.640625 2441 1543.25 2520.929688 L 1627.179688 2445.289062 L 1585.53125 2538.761719 C 1697.300781 2582.761719 1816.359375 2605.351562 1936.480469 2605.351562 C 2095.769531 2605.351562 2252.570312 2565.628906 2392.640625 2489.789062 L 2372.808594 2445.289062 L 2410.921875 2479.628906 C 2636.761719 2350.929688 2800.761719 2135.710938 2864.960938 1883.820312 C 2830.460938 1839.398438 2780.148438 1776.699219 2712.109375 1695.878906 L 2621.160156 1710.910156 L 2703.800781 1647.199219 C 2713.859375 1549.519531 2721.039062 1444.738281 2723.988281 1398.929688 C 2682.480469 1337.410156 2619.878906 1253.710938 2619.878906 1253.710938 C 2666.71875 1288.109375 2720.199219 1343.460938 2757.300781 1384.390625 C 2796.230469 1398.21875 2834.558594 1413.28125 2869.121094 1427.558594 C 2864.890625 1409.570312 2860.128906 1391.699219 2854.859375 1373.980469 C 2704.988281 1169.320312 2486.5 1025.140625 2239.398438 967.820312 L 2317.96875 1073.53125 C 2362.890625 1087.550781 2419.269531 1108.128906 2463.238281 1133.988281 C 2463.238281 1133.988281 2363.070312 1108.359375 2274.109375 1091.359375 C 2211.660156 1103.96875 2103.78125 1128.601562 2026.71875 1161.410156 L 1999.988281 1359.410156 L 1973.269531 1161.410156 C 1896.210938 1128.601562 1788.328125 1103.96875 1725.878906 1091.359375 C 1636.910156 1108.359375 1536.75 1133.988281 1536.75 1133.988281 C 1580.71875 1108.128906 1637.101562 1087.550781 1682.019531 1073.53125 Z M 1999.988281 1465.109375 L 2027.550781 1575.351562 C 2077.511719 1605.25 2189.320312 1676.25 2311.410156 1780.441406 L 2439.039062 1765.671875 L 2329.101562 1830.171875 C 2307.96875 1889.519531 2252.640625 2042.421875 2209.75 2138.121094 L 2278.578125 2318.378906 L 2153.828125 2177.660156 C 2117.320312 2181.339844 2059.960938 2185.929688 1999.988281 2185.929688 C 1940.03125 2185.929688 1882.671875 2181.339844 1846.160156 2177.660156 L 1721.410156 2318.378906 L 1790.238281 2138.121094 C 1747.351562 2042.421875 1692.019531 1889.519531 1670.890625 1830.171875 L 1560.949219 1765.671875 L 1688.578125 1780.441406 C 1810.671875 1676.25 1922.480469 1605.25 1972.441406 1575.351562 Z M 1010.789062 1894.488281 C 1029.800781 1965.640625 1056.949219 2034.371094 1091.699219 2099.300781 C 1076.769531 2045.019531 1061.960938 1982.269531 1052.828125 1942.289062 C 1038.550781 1927.628906 1024.488281 1911.460938 1010.789062 1894.488281 "/>
</svg>
